<svg width="222" height="73" viewBox="0 0 222 73" fill="none" xmlns="http://www.w3.org/2000/svg">
<g clip-path="url(#clip0_143_2)">
<path d="M47.5363 25.8669C46.0032 24.7138 44.2326 23.8965 42.3919 23.4214C41.4699 23.1839 40.5302 23.0285 39.5761 22.9584C38.671 22.8626 37.4809 22.9254 36.5332 23.3047C34.62 24.0423 33.2375 25.1438 31.6955 25.8049C30.1801 26.5094 28.5745 26.8412 26.9174 26.8347C25.2603 26.8492 23.6547 26.5086 22.1393 25.8065C20.595 25.143 19.2124 24.0431 17.3001 23.3063C16.3475 22.927 15.1389 22.8642 14.2588 22.9601C13.3046 23.0317 12.3666 23.1871 11.4454 23.4247C9.60229 23.8997 7.83326 24.717 6.30095 25.8677C3.184 28.1818 1.3892 31.8044 0.623447 35.3844C-0.163239 39.0094 -0.113316 42.6916 0.267546 46.2877C1.07275 53.479 3.58338 60.5293 7.94518 66.2801C9.02899 67.7174 10.2698 69.0452 11.6701 70.1813C13.084 71.2788 14.6936 72.2515 16.5238 72.4504C18.3178 72.518 20.1336 72.3932 21.8583 71.8682C23.5686 71.3481 25.0518 70.0928 26.919 70.2111C25.0534 70.0638 23.534 71.3062 21.8366 71.7942C20.1223 72.2894 18.3058 72.39 16.5319 72.2982C14.7669 72.0808 13.1863 71.1049 11.8118 70.0018C10.4486 68.8616 9.24237 67.5346 8.18916 66.0965C4.01497 60.2902 1.85058 53.2253 1.30787 46.1902C1.05987 42.6659 1.15488 39.0819 2.01645 35.7169C2.85628 32.3608 4.63176 29.2495 7.36624 27.3066C8.71415 26.3234 10.2666 25.6293 11.9003 25.234C13.4955 24.8901 15.3619 24.5906 16.6333 25.1277C18.0771 25.6825 19.5603 26.8395 21.2923 27.6367C23.017 28.4725 24.9906 28.9226 26.9174 28.9266C28.8443 28.9307 30.8211 28.4741 32.545 27.6423C34.2794 26.8436 35.7602 25.6865 37.2039 25.1317C38.5148 24.5914 40.3144 24.8942 41.9345 25.2364C43.5667 25.6317 45.1215 26.3258 46.4686 27.3066C49.195 29.256 50.9746 32.3608 51.8144 35.7169C52.676 39.0738 52.771 42.6803 52.5254 46.1878C51.9819 53.2229 49.8183 60.2862 45.6505 66.0941C44.5973 67.5314 43.3911 68.8592 42.0255 70.0002C40.6494 71.1017 39.0744 72.0784 37.303 72.2982C35.538 72.3876 33.715 72.2894 32.0031 71.7942C30.3057 71.307 28.7855 70.0646 26.9206 70.2111C28.7879 70.0928 30.2711 71.3473 31.979 71.8682C33.7053 72.3924 35.5194 72.518 37.3199 72.4504C39.1445 72.2515 40.7589 71.2764 42.1688 70.1789C43.5699 69.0428 44.8107 67.715 45.8945 66.2801C50.2579 60.5285 52.7685 53.479 53.5738 46.2861C53.957 42.6755 54.0061 39.0159 53.2195 35.382C52.4521 31.802 50.6621 28.173 47.5363 25.8669ZM59.6998 8.24896L59.6828 8.23446C57.6674 6.21501 55.3863 4.47657 52.9207 3.03928C50.4326 1.65674 47.7497 0.506101 44.8518 0.122823C43.4096 -0.0631791 41.9136 -0.0591528 40.457 0.28306C39.0092 0.624467 37.6146 1.37411 36.6089 2.4861C34.6305 4.80187 34.3036 7.84152 34.5242 10.5591C34.7658 7.84555 35.4091 4.96452 37.3601 3.22367C39.2314 1.4192 42.0561 1.21871 44.5836 1.75095C47.1474 2.29366 49.6274 3.37344 51.9029 4.77127C53.6068 5.78422 55.2043 6.97673 56.6931 8.29083C54.6165 8.92774 52.8958 10.3079 51.4762 11.622C49.5244 13.4361 47.823 15.3758 45.9042 16.9645C44.0111 18.5596 41.664 19.5798 39.2379 19.0395C37.1451 18.6498 35.265 17.4098 33.5169 16.028C34.1184 15.673 34.7231 15.3235 35.3004 14.9314C36.0887 14.4402 36.7892 13.8894 37.6967 13.4135C36.6975 13.0117 35.5959 13.1929 34.6458 13.4321C33.6707 13.6777 32.7801 14.0939 31.9218 14.5505C30.7067 15.2631 29.5682 16.0957 28.6148 17.169C28.6204 16.8574 28.6494 16.5482 28.6414 16.2358C28.5737 14.9104 28.3853 13.5673 27.9078 12.2935C27.4593 11.0301 26.7202 9.78448 25.6436 8.97203C25.9963 10.2789 26.1903 11.4521 26.3232 12.6703C26.4407 13.879 26.5245 15.0868 26.5462 16.3099C26.6533 18.7633 26.6074 21.2289 26.9215 23.8812C27.6107 22.7185 28.0165 21.4543 28.2911 20.1708C28.4304 19.5355 28.5222 18.8922 28.5794 18.2424C30.1785 17.8011 31.5804 17.1127 32.946 16.3799C33.0893 16.2962 33.227 16.2028 33.372 16.1182C34.9099 17.7729 36.7136 19.2553 38.9995 20.0025C40.3201 20.4124 41.7952 20.4124 43.152 20.0476C44.512 19.6788 45.7391 18.9928 46.8471 18.2206C49.0775 16.6706 50.8626 14.7204 52.7798 13.0762C54.6696 11.4416 56.7422 9.97532 58.9477 10.0148C59.2158 10.0188 59.4904 9.91815 59.6957 9.71201C60.1007 9.3078 60.1008 8.65397 59.6998 8.24896ZM8.82044 37.1059C7.66175 40.8533 8.2576 44.9518 10.1442 48.1445C9.85754 44.4437 9.78346 40.958 10.8222 37.7267C11.3013 36.1131 12.0606 34.5953 13.0437 33.2152C14.0639 31.8656 15.2758 30.6079 16.9595 29.8116C15.0487 29.7504 13.204 30.8044 11.8214 32.1378C10.4099 33.4954 9.41468 35.2507 8.82044 37.1059Z" fill="#38BC64"/>
<path d="M83.7 56.2L83.85 54.6C81.95 54.4 80.3417 53.7583 79.025 52.675C77.7082 51.5916 76.65 50.25 75.85 48.65C75.05 47.05 74.475 45.2667 74.125 43.3C73.775 41.3332 73.6 39.3668 73.6 37.4V35.55C73.6 33.4166 73.8166 31.325 74.25 29.275C74.6833 27.225 75.35 25.4 76.25 23.8C77.15 22.2 78.3083 20.9082 79.725 19.925C81.1416 18.9417 82.8332 18.45 84.8 18.45C86.5 18.45 87.8 18.6666 88.7 19.1C89.6 19.5333 90.4166 20.0333 91.15 20.6L92.15 19.35C91.1834 18.5833 90.1583 17.975 89.075 17.525C87.9916 17.075 86.5667 16.85 84.8 16.85C80.9667 16.85 77.875 18.5583 75.525 21.975C73.175 25.3916 72 29.9165 72 35.55V37.4C72 42.8 73.0417 47.1835 75.125 50.55C77.2083 53.9165 80.0667 55.8 83.7 56.2ZM86.45 56.2C89.2833 56 91.7335 55.05 93.8 53.35L94.1 53.1V39.75H84.25V41.4H92.5V52.35C90.7666 53.65 88.7167 54.4 86.35 54.6L86.45 56.2ZM111.6 44.2501C113.733 43.0501 115.367 41.3583 116.5 39.175C117.633 36.9918 118.2 34.5168 118.2 31.7501V31.05C118.2 26.95 116.975 23.55 114.525 20.85C112.075 18.15 108.583 16.8 104.05 16.8H100.6V32.65C101.167 32.6834 101.733 32.7001 102.3 32.7001V18.4H103.95C108.05 18.4 111.15 19.5917 113.25 21.975C115.35 24.3584 116.4 27.4165 116.4 31.15V31.7C116.4 35.4 115.35 38.4335 113.25 40.8C111.15 43.1665 108.05 44.35 103.95 44.35H102.3H100.6V45.95C101.6 45.9834 102.267 46 102.6 46H104.05C106.35 46 108.367 45.65 110.1 44.95L116.3 56.2H118.3L111.6 44.2501ZM146.65 16.85V43.45C146.65 46.95 145.725 49.65 143.875 51.55C142.025 53.45 139.817 54.4833 137.25 54.65V55.275V55.4501V56.2C140.45 56 143.017 54.8167 144.95 52.65C146.884 50.4834 147.85 47.4165 147.85 43.45V16.85H146.65ZM135.4 54.7C132.8 54.5 130.633 53.45 128.9 51.55C127.167 49.65 126.3 46.95 126.3 43.45V16.85H124.8V43.45C124.8 47.45 125.758 50.525 127.675 52.675C129.592 54.825 132.167 56 135.4 56.2V55.475V54.7ZM154.35 33.55L154.35 56.2H163.95C166.817 56.2 169.084 55.1834 170.75 53.1501C172.417 51.1167 173.25 48.4833 173.25 45.25C173.25 44.3834 173.142 43.3918 172.925 42.2751C172.708 41.1584 172.342 40.075 171.825 39.025C171.308 37.975 170.608 37.025 169.725 36.175C168.842 35.325 167.7 34.7334 166.3 34.4C167.7 33.5334 168.717 32.3751 169.35 30.9251C169.983 29.4751 170.3 27.9501 170.3 26.3501C170.3 23.2833 169.45 20.925 167.75 19.275C166.05 17.625 163.733 16.8 160.8 16.8H154.35V32.35H156.1L156.05 18.85H160.95C163.717 18.85 165.667 19.575 166.8 21.025C167.933 22.475 168.5 24.2501 168.5 26.3501C168.5 28.6167 167.984 30.375 166.95 31.625C165.917 32.875 164.5 33.5 162.7 33.5H156.15L157.25 35.7H163.95C165.317 35.7 166.483 36.0084 167.45 36.625C168.417 37.2417 169.208 38.0167 169.825 38.9501C170.442 39.8834 170.9 40.9334 171.2 42.1C171.5 43.2667 171.65 44.4001 171.65 45.5001C171.65 46.5667 171.5 47.6167 171.2 48.65C170.9 49.6834 170.45 50.6084 169.85 51.425C169.25 52.2417 168.467 52.9 167.5 53.4C166.533 53.9 165.383 54.1501 164.05 54.1501H156.05L156.1 33.55H154.35ZM181.4 46.35V16.8H179.75V46.35H181.4ZM194.85 56.2V54.5H181.4V49.6001H179.75V56.2H194.85ZM222 16.8H219.85L210.4 42.3V56.2H212.5V42.3L222 16.8ZM204.9 20.45L203.55 16.8H201.35L202.75 20.45H204.9Z" fill="#252A34"/>
</g>
<defs>
<clipPath id="clip0_143_2">
<rect width="222" height="72.4672" fill="white"/>
</clipPath>
</defs>
</svg>
